<svg width="100" height="100" viewBox="0 0 100 100" fill="none" xmlns="http://www.w3.org/2000/svg">
<rect width="100" height="100" rx="4" fill="black"/>
<path d="M24.48 55.3266C24.73 56.2633 25.13 56.6266 25.8367 56.6266C26.57 56.6266 26.9533 56.1866 26.9533 55.3266V39.3466H31.55V55.3266C31.55 57.5766 31.2567 58.5533 30.1167 59.6933C29.2933 60.5199 27.7733 61.1566 25.8567 61.1566C24.31 61.1566 22.8267 60.6433 21.8833 59.6966C21.0533 58.8633 20.5967 58.0133 19.8867 55.3266L17.0667 44.6733C16.82 43.7366 16.42 43.3733 15.7133 43.3733C14.98 43.3733 14.5933 43.8133 14.5933 44.6733V60.6533H10V44.6733C10 42.4233 10.2933 41.4466 11.4333 40.3066C12.2567 39.4799 13.7767 38.8433 15.6933 38.8433C17.24 38.8433 18.7233 39.3566 19.6667 40.3033C20.4967 41.1366 20.95 41.9866 21.6633 44.6733L24.48 55.3266ZM85.25 60.6533L79.9467 44.0533C79.9063 43.896 79.8386 43.7471 79.7467 43.6133C79.6718 43.5224 79.5768 43.4504 79.4691 43.403C79.3615 43.3555 79.2442 43.3339 79.1267 43.3399C79.0097 43.3344 78.8931 43.3563 78.786 43.4037C78.679 43.4512 78.5845 43.5229 78.51 43.6133C78.418 43.747 78.3503 43.896 78.31 44.0533L73.0067 60.6533H68.2567L74.0533 42.5199C74.3533 41.5766 74.7867 40.7733 75.3333 40.2399C76.2733 39.3233 77.38 38.8433 79.1267 38.8433C80.8767 38.8433 81.9833 39.3233 82.9233 40.2433C83.47 40.7766 83.9033 41.5766 84.2033 42.5199L90 60.6533H85.25ZM61.77 60.6533C64.78 60.6533 66.25 60.0133 67.41 58.8599C68.6933 57.5833 69.3067 56.1866 69.3067 54.1033C69.3067 52.2599 68.6333 50.5566 67.6067 49.5366C66.2633 48.2033 64.5967 47.7799 61.8767 47.7799H58.07C56.6167 47.7799 56.0367 47.6033 55.5767 47.1533C55.2633 46.8433 55.1133 46.3866 55.1133 45.8433C55.1133 45.2833 55.2467 44.7299 55.6333 44.3499C55.9767 44.0166 56.4433 43.8599 57.3367 43.8599H68.34V39.3466H58.1767C55.1667 39.3466 53.7 39.9866 52.54 41.1399C51.2567 42.4166 50.64 43.8133 50.64 45.8966C50.64 47.7399 51.3167 49.4433 52.34 50.4633C53.6867 51.7966 55.3533 52.2199 58.0733 52.2199H61.8767C63.3333 52.2199 63.91 52.3966 64.37 52.8466C64.6867 53.1566 64.8367 53.6133 64.8367 54.1566C64.8367 54.7199 64.7 55.2733 64.3133 55.6499C63.9733 55.9833 63.5067 56.1399 62.6133 56.1399H51.2633L46.91 42.5199C46.61 41.5766 46.1767 40.7733 45.63 40.2399C44.69 39.3233 43.58 38.8433 41.8333 38.8433C40.0867 38.8433 38.9767 39.3233 38.04 40.2433C37.49 40.7766 37.06 41.5766 36.7567 42.5199L30.9633 60.6533H35.71L41.0167 44.0533C41.057 43.896 41.1247 43.7471 41.2167 43.6133C41.2911 43.5229 41.3857 43.4512 41.4927 43.4037C41.5997 43.3563 41.7164 43.3344 41.8333 43.3399C42.1067 43.3399 42.3067 43.4333 42.4533 43.6133C42.5454 43.747 42.6131 43.8959 42.6533 44.0533L47.9567 60.6533H61.77Z" fill="white"/>
</svg>
